<svg xmlns="http://www.w3.org/2000/svg" width="201" height="37" viewBox="0 0 201 37" fill="none"><path d="M48.827 17.1822C48.827 15.6769 48.7499 14.6101 48.5959 13.9819C48.4418 13.3536 48.1573 13.0395 47.7424 13.0395C47.3868 13.0395 47.0964 13.1047 46.8712 13.2351C46.646 13.3536 46.4801 13.5492 46.3734 13.8218C46.2667 14.0826 46.1956 14.3552 46.16 14.6397C46.1363 14.9123 46.1245 15.262 46.1245 15.6887V17.1822H48.827ZM47.4046 26.7478C46.077 26.7478 44.9214 26.5463 43.9375 26.1433C42.9656 25.7402 42.1951 25.1772 41.6262 24.4542C41.0691 23.7311 40.6601 22.9192 40.3994 22.0183C40.1386 21.1056 40.0082 20.0922 40.0082 18.978C40.0082 16.3229 40.6838 14.3137 42.0351 12.9506C43.3864 11.5875 45.277 10.906 47.7069 10.906C50.0419 10.906 51.7132 11.4571 52.7208 12.5595C53.7283 13.65 54.2321 15.4102 54.2321 17.8401V19.8136H46.1067V20.1515C46.1067 20.8508 46.1778 21.4257 46.32 21.8761C46.4741 22.3265 46.6934 22.6584 46.9779 22.8718C47.2624 23.0851 47.5528 23.2274 47.8491 23.2985C48.1454 23.3696 48.507 23.4052 48.9337 23.4052C49.3485 23.4052 49.793 23.3518 50.2672 23.2451C50.7531 23.1385 51.2391 22.9725 51.7251 22.7473C52.2229 22.5221 52.6378 22.2554 52.9697 21.9472L54.0187 23.743C53.5801 24.4542 52.9341 25.0528 52.0807 25.5387C51.2391 26.0129 50.4272 26.3329 49.6449 26.4988C48.8626 26.6648 48.1158 26.7478 47.4046 26.7478ZM63.839 24.792L63.6612 24.9876C63.5427 25.1298 63.3589 25.2957 63.11 25.4854C62.873 25.6751 62.5944 25.8647 62.2744 26.0544C61.9662 26.244 61.5869 26.404 61.1365 26.5344C60.686 26.6766 60.2238 26.7478 59.7496 26.7478C56.5493 26.7478 54.9491 25.1654 54.9491 22.0006C54.9491 21.3842 55.0617 20.8212 55.2869 20.3115C55.5121 19.7899 55.8025 19.3514 56.1581 18.9958C56.5137 18.6402 56.9404 18.3261 57.4383 18.0534C57.9361 17.769 58.4339 17.5497 58.9318 17.3956C59.4414 17.2296 59.9748 17.0933 60.5319 16.9866C61.089 16.88 61.5869 16.8088 62.0254 16.7733C62.464 16.7377 62.8848 16.72 63.2878 16.72V16.3999C63.2878 15.6769 63.0922 15.1672 62.7011 14.8708C62.3218 14.5745 61.7054 14.4264 60.852 14.4264C60.1171 14.4264 59.3526 14.5153 58.5584 14.6931C57.7642 14.859 57.1419 15.0605 56.6915 15.2976L55.5536 12.8795C56.3596 12.358 57.4086 11.9016 58.7006 11.5105C59.9926 11.1075 61.3083 10.906 62.6477 10.906C63.8331 10.906 64.811 11.0245 65.5814 11.2615C66.3519 11.4868 66.9742 11.8779 67.4483 12.435C67.9343 12.9803 68.278 13.6796 68.4795 14.533C68.681 15.3746 68.7818 16.4473 68.7818 17.7512V24.9876L69.2796 26.3744H64.4079L63.839 24.792ZM62.4344 23.6185C62.5885 23.6185 62.7307 23.5889 62.8611 23.5296C63.0033 23.4585 63.11 23.3933 63.1811 23.334C63.2523 23.2629 63.2878 23.2274 63.2878 23.2274V18.9602C62.5648 18.9602 61.9899 19.1617 61.5632 19.5647C61.1365 19.9559 60.9231 20.5663 60.9231 21.396C60.9231 22.8777 61.4269 23.6185 62.4344 23.6185ZM75.7317 26.7478C74.6175 26.7478 73.4915 26.564 72.3536 26.1966C71.2157 25.8173 70.4867 25.4498 70.1667 25.0942L70.6289 22.2317C71.0319 22.6228 71.7017 22.9607 72.6381 23.2451C73.5863 23.5296 74.5523 23.6719 75.5362 23.6719C76.2474 23.6719 76.7333 23.583 76.9941 23.4052C77.2667 23.2274 77.403 22.9784 77.403 22.6584C77.403 22.3502 77.166 22.0776 76.6919 21.8405C76.2177 21.5916 75.4473 21.3071 74.3805 20.9871C71.6187 20.1574 70.2378 18.4387 70.2378 15.831C70.2378 14.7642 70.546 13.8515 71.1623 13.0929C71.7787 12.3224 72.5669 11.7653 73.527 11.4216C74.4872 11.0778 75.5599 10.906 76.7452 10.906C78.7721 10.906 80.2656 11.2793 81.2257 12.0261C81.4391 12.2276 81.5457 12.3283 81.5457 12.3283L80.7634 14.8708C79.9811 14.1004 78.9025 13.7152 77.5275 13.7152C76.4014 13.7152 75.8384 14.0471 75.8384 14.7108C75.8384 14.9005 75.8799 15.0605 75.9629 15.1909C76.0459 15.3094 76.1822 15.4161 76.3718 15.5109C76.5733 15.5939 76.7689 15.665 76.9585 15.7243C77.1482 15.7717 77.4149 15.8428 77.7586 15.9376C78.1024 16.0206 78.3987 16.0977 78.6476 16.1688C80.0345 16.6311 81.042 17.283 81.6702 18.1246C82.2984 18.9661 82.6125 20.0151 82.6125 21.2716C82.6125 24.9224 80.3189 26.7478 75.7317 26.7478ZM91.4198 32.4906C90.1989 32.4906 89.0491 32.3128 87.9705 31.9573C86.8919 31.6017 86.1036 31.1216 85.6058 30.5171L86.5303 28.5969C87.2178 28.988 88.3083 29.1836 89.8018 29.1836C90.276 29.1836 90.6849 29.1303 91.0286 29.0236C91.3724 28.9169 91.6806 28.7273 91.9532 28.4546C92.2258 28.1939 92.4332 27.8205 92.5755 27.3345C92.7177 26.8485 92.7948 26.2499 92.8066 25.5387V24.0097L92.6288 24.2942C92.5103 24.4838 92.3266 24.7149 92.0776 24.9876C91.8406 25.2483 91.568 25.515 91.2598 25.7877C90.9516 26.0484 90.5723 26.2736 90.1219 26.4633C89.6833 26.6529 89.2329 26.7478 88.7706 26.7478C87.0045 26.7478 85.7599 26.2559 85.0368 25.272C84.3138 24.2764 83.9523 22.6051 83.9523 20.2581V13.9463L83.3122 13.3062V11.2615H89.784V21.3783C89.784 21.9235 89.867 22.3265 90.033 22.5873C90.2108 22.8362 90.5604 22.9607 91.082 22.9607C91.2361 22.9607 91.3902 22.937 91.5442 22.8895C91.6983 22.8303 91.8465 22.7532 91.9887 22.6584C92.1428 22.5636 92.3029 22.4451 92.4688 22.3028V13.9463L91.4909 13.3062V11.2615H98.265V24.2942C98.265 26.9137 97.7079 28.9347 96.5937 30.3571C95.4795 31.7795 93.7549 32.4906 91.4198 32.4906Z" fill="white"></path><path d="M102.456 26.7122L99.54 23.7785V23.1562L102.456 20.2404H103.132L106.172 23.1562V23.7785L103.132 26.7122H102.456ZM117.038 26.3744C115.711 26.3744 114.525 26.0958 113.482 25.5387V26.3744H107.686V6.26542L106.619 5.62535V3.97182L112.326 3.08283H113.482V12.6484C113.672 12.435 113.879 12.2335 114.104 12.0439C114.33 11.8542 114.602 11.6705 114.922 11.4927C115.242 11.3149 115.604 11.1726 116.007 11.066C116.422 10.9593 116.86 10.906 117.323 10.906C119.278 10.906 120.713 11.5757 121.625 12.9151C122.55 14.2545 123.012 16.1095 123.012 18.4802C123.012 19.5944 122.888 20.6256 122.639 21.5738C122.39 22.5102 122.022 23.34 121.536 24.063C121.05 24.7861 120.422 25.355 119.652 25.7699C118.893 26.1729 118.022 26.3744 117.038 26.3744ZM114.425 23.903C116.013 23.903 116.807 22.688 116.807 20.2581V17.2356C116.807 16.2162 116.617 15.4339 116.238 14.8886C115.871 14.3315 115.396 14.053 114.816 14.053C114.377 14.053 113.933 14.213 113.482 14.533V23.7785C113.66 23.8259 113.826 23.8615 113.98 23.8852C114.134 23.8971 114.282 23.903 114.425 23.903ZM133.558 24.0097C133.487 24.1756 133.339 24.3949 133.114 24.6675C132.9 24.9402 132.616 25.2424 132.26 25.5743C131.905 25.8943 131.466 26.167 130.945 26.3922C130.423 26.6292 129.896 26.7478 129.362 26.7478C127.691 26.7478 126.494 26.2499 125.771 25.2543C125.059 24.2586 124.704 22.5991 124.704 20.2759V13.9463L124.082 13.3062V11.2615H130.536V21.396C130.524 21.9294 130.613 22.3265 130.802 22.5873C130.992 22.8362 131.336 22.9607 131.834 22.9607C131.905 22.9607 131.97 22.9607 132.029 22.9607C132.088 22.9488 132.148 22.937 132.207 22.9251C132.266 22.9014 132.314 22.8836 132.349 22.8718C132.397 22.8599 132.45 22.8421 132.509 22.8184C132.568 22.7829 132.616 22.7532 132.651 22.7295C132.687 22.7058 132.734 22.6762 132.794 22.6406C132.853 22.5932 132.894 22.5577 132.918 22.5339C132.954 22.5102 133.001 22.4747 133.06 22.4273C133.132 22.368 133.185 22.3265 133.22 22.3028V13.9463L132.26 13.3062V11.2615H139.034V26.3744H134.109L133.558 24.0097ZM141.48 26.3744V14.8708L140.414 14.213V12.3106L144.236 11.2615H147.205V26.3744H141.48ZM144.058 9.6258L141.143 6.69214V6.06984L144.058 3.15395H144.734L147.774 6.06984V6.69214L144.734 9.6258H144.058ZM149.463 26.3744V6.26542L148.396 5.62535V3.97182L154.103 3.08283H155.259V26.3744H149.463ZM167.567 26.3744L166.874 24.0808C166.779 24.2467 166.666 24.4127 166.536 24.5786C166.417 24.7446 166.222 24.9579 165.949 25.2187C165.676 25.4676 165.386 25.6869 165.078 25.8766C164.77 26.0662 164.384 26.2322 163.922 26.3744C163.46 26.5166 162.974 26.5877 162.464 26.5877C160.508 26.5877 159.074 25.918 158.161 24.5786C157.249 23.2392 156.792 21.3783 156.792 18.9958C156.792 17.5023 157.006 16.1747 157.432 15.0131C157.859 13.8396 158.529 12.8973 159.442 12.1861C160.354 11.4749 161.457 11.1193 162.749 11.1193C163.519 11.1193 164.207 11.2023 164.811 11.3682C165.416 11.5342 165.937 11.7357 166.376 11.9727V6.58546L164.42 5.9276V3.97182L170.714 3.08283H172.101V26.3744H167.567ZM165.06 23.1029C165.273 23.1029 165.493 23.0673 165.718 22.9962C165.943 22.9133 166.162 22.8006 166.376 22.6584V13.7152C166.008 13.6322 165.67 13.5907 165.362 13.5907C163.786 13.6026 162.992 14.8175 162.98 17.2356V19.7247C162.98 20.8389 163.175 21.6805 163.567 22.2495C163.958 22.8184 164.456 23.1029 165.06 23.1029ZM182.488 17.1822C182.488 15.6769 182.411 14.6101 182.257 13.9819C182.103 13.3536 181.818 13.0395 181.404 13.0395C181.048 13.0395 180.758 13.1047 180.532 13.2351C180.307 13.3536 180.141 13.5492 180.035 13.8218C179.928 14.0826 179.857 14.3552 179.821 14.6397C179.797 14.9123 179.786 15.262 179.786 15.6887V17.1822H182.488ZM181.066 26.7478C179.738 26.7478 178.583 26.5463 177.599 26.1433C176.627 25.7402 175.856 25.1772 175.287 24.4542C174.73 23.7311 174.321 22.9192 174.061 22.0183C173.8 21.1056 173.669 20.0922 173.669 18.978C173.669 16.3229 174.345 14.3137 175.696 12.9506C177.048 11.5875 178.938 10.906 181.368 10.906C183.703 10.906 185.374 11.4571 186.382 12.5595C187.389 13.65 187.893 15.4102 187.893 17.8401V19.8136H179.768V20.1515C179.768 20.8508 179.839 21.4257 179.981 21.8761C180.135 22.3265 180.355 22.6584 180.639 22.8718C180.924 23.0851 181.214 23.2274 181.51 23.2985C181.807 23.3696 182.168 23.4052 182.595 23.4052C183.01 23.4052 183.454 23.3518 183.928 23.2451C184.414 23.1385 184.9 22.9725 185.386 22.7473C185.884 22.5221 186.299 22.2554 186.631 21.9472L187.68 23.743C187.241 24.4542 186.595 25.0528 185.742 25.5387C184.9 26.0129 184.088 26.3329 183.306 26.4988C182.524 26.6648 181.777 26.7478 181.066 26.7478ZM195.562 26.3744H189.819V14.8708L188.752 14.213V12.2039L192.575 11.2615H194.015L194.531 15.4931C195.017 12.5891 196.576 11.1371 199.207 11.1371C199.503 11.1371 199.812 11.1904 200.132 11.2971L199.527 17.6267C199.278 17.4015 198.733 17.2889 197.891 17.2889C196.682 17.2889 195.906 17.6089 195.562 18.249V26.3744Z" fill="#CCFE02"></path><rect x="6.04102" y="6.74182" width="18.1328" height="17.0816" fill="#0C1115"></rect><path d="M3.10392 1.32832C1.93337 1.5517 0.828589 2.47148 0.276196 3.66719C0 4.27161 0 4.35045 0 16.2944V28.3172L0.368262 29.0662C0.789133 29.9203 1.53881 30.6561 2.42001 31.0634C3.02501 31.3394 3.09077 31.3394 14.4543 31.3788C23.7003 31.4051 25.8572 31.3788 25.8178 31.2474C25.0813 29.2633 24.6341 27.634 24.6998 27.1609C24.7919 26.4777 25.2522 26.0178 25.9362 25.9258C26.4096 25.8601 28.0405 26.3069 30.0265 27.0427C30.158 27.0821 30.1843 24.9272 30.158 15.69C30.1186 4.33731 30.1186 4.27161 29.8424 3.66719C29.4346 2.78683 28.6981 2.03787 27.8432 1.6174L27.0936 1.24949L15.3881 1.22321C8.9435 1.22321 3.41957 1.26263 3.10392 1.32832ZM16.3482 10.2765C16.4403 10.3684 16.506 10.5787 16.506 10.7626C16.506 11.5247 14.8094 22.1022 14.6647 22.273C14.4674 22.5095 13.994 22.5358 13.7704 22.3124C13.6783 22.2204 13.6125 22.0102 13.6125 21.8131C13.6125 21.0641 15.3092 10.4867 15.4538 10.3159C15.6511 10.0794 16.1246 10.0531 16.3482 10.2765ZM11.9027 12.0897C12.0474 12.2343 12.1658 12.4051 12.1658 12.4708C12.1658 12.6547 11.6134 13.3117 10.1667 14.8228C9.45644 15.5586 8.87774 16.2156 8.87774 16.2813C8.87774 16.3601 9.5222 17.0959 10.3245 17.9237C11.1136 18.7647 11.8633 19.5925 11.9817 19.7764C12.1789 20.0787 12.1789 20.1312 11.9817 20.4334C11.6134 20.9984 11.3109 20.8539 9.87731 19.3428C7.57567 16.9251 7.29948 16.6098 7.29948 16.2944C7.29948 16.1236 7.56252 15.7163 7.91763 15.3221C9.81155 13.2592 11.2583 11.8269 11.4424 11.8269C11.5476 11.8269 11.7581 11.9452 11.9027 12.0897ZM20.2412 13.2329C22.5823 15.69 22.8191 15.9791 22.8191 16.3076C22.8191 16.5309 22.2798 17.2011 20.9646 18.5939C19.9387 19.6713 19.0181 20.6174 18.926 20.6699C18.663 20.8145 18.2421 20.6568 18.0711 20.3546C17.887 19.9998 18.0448 19.7764 19.7941 17.9237C20.5964 17.0959 21.2408 16.3601 21.2408 16.2944C21.2408 16.2287 20.5964 15.4929 19.7941 14.6651C19.0049 13.8242 18.2553 12.9964 18.1369 12.8124C17.9396 12.5102 17.9396 12.4576 18.1369 12.1554C18.5052 11.5904 18.8077 11.735 20.2412 13.2329Z" fill="#CCFE02"></path><path d="M25.7389 26.9639C25.6468 27.0559 25.5811 27.2398 25.5811 27.3975C25.5811 27.542 26.1992 29.4998 26.9357 31.7336C28.1852 35.4521 28.3299 35.82 28.6455 35.9251C29.1585 36.1091 29.3426 35.8594 29.7898 34.3747C30.4079 32.3511 30.5789 31.9438 30.8814 31.773C31.0392 31.6942 31.8941 31.4051 32.7885 31.1292C34.6429 30.5773 34.906 30.4065 34.7087 29.8677C34.6035 29.5524 34.2878 29.421 30.5131 28.1596C28.2773 27.4238 26.3176 26.8062 26.1729 26.8062C26.0151 26.8062 25.8309 26.8719 25.7389 26.9639Z" fill="white"></path></svg>