<svg xmlns="http://www.w3.org/2000/svg" width="200" height="35" viewBox="0 0 200 35" fill="none"><g clip-path="url(#clip0_1211_86)"><path d="M48.7751 15.7606C48.7751 14.2521 48.698 13.1831 48.5441 12.5535C48.39 11.924 48.1057 11.6092 47.6912 11.6092C47.3359 11.6092 47.0457 11.6745 46.8206 11.8052C46.5955 11.924 46.4298 12.12 46.3231 12.3932C46.2165 12.6545 46.1455 12.9277 46.11 13.2128C46.0863 13.4859 46.0743 13.8363 46.0743 14.2639V15.7606H48.7751ZM47.3537 25.3461C46.0271 25.3461 44.8722 25.1442 43.889 24.7403C42.9178 24.3364 42.1478 23.7723 41.5794 23.0477C41.0226 22.3232 40.6139 21.5095 40.3533 20.6068C40.0928 19.6923 39.9626 18.6766 39.9626 17.5601C39.9626 14.8994 40.6377 12.8861 41.988 11.5201C43.3382 10.1542 45.2275 9.47119 47.6557 9.47119C49.989 9.47119 51.6592 10.0235 52.6661 11.1282C53.6727 12.2209 54.1763 13.9848 54.1763 16.4198V18.3975H46.0567V18.736C46.0567 19.4368 46.1277 20.013 46.2698 20.4642C46.4239 20.9157 46.6429 21.2482 46.9273 21.4619C47.2116 21.6758 47.5018 21.8184 47.7978 21.8896C48.0939 21.961 48.4553 21.9966 48.8816 21.9966C49.2961 21.9966 49.7404 21.9431 50.2141 21.8361C50.6998 21.7293 51.1855 21.563 51.671 21.3373C52.1684 21.1115 52.5831 20.8443 52.9147 20.5356L53.9629 22.335C53.5247 23.0477 52.8792 23.6474 52.0265 24.1345C51.1855 24.6098 50.3741 24.9305 49.5924 25.0966C48.8106 25.263 48.0643 25.3461 47.3537 25.3461Z" fill="#02090E"></path><path d="M63.7763 23.3863L63.5986 23.5822C63.4802 23.7247 63.2965 23.8911 63.0478 24.081C62.811 24.2712 62.5326 24.4611 62.2127 24.6512C61.9047 24.8414 61.5257 25.0016 61.0757 25.1322C60.6255 25.2748 60.1635 25.3461 59.6898 25.3461C56.4918 25.3461 54.8927 23.7603 54.8927 20.5889C54.8927 19.9713 55.0053 19.4071 55.2302 18.8964C55.4553 18.3737 55.7455 17.9343 56.1008 17.5779C56.4563 17.2216 56.8825 16.9068 57.38 16.6336C57.8776 16.3485 58.3751 16.1288 58.8725 15.9744C59.3818 15.8081 59.9149 15.6715 60.4716 15.5646C61.0282 15.4577 61.5257 15.3864 61.9639 15.3508C62.4022 15.3152 62.8227 15.2973 63.2255 15.2973V14.9766C63.2255 14.2521 63.03 13.7413 62.6392 13.4444C62.2602 13.1474 61.6441 12.9989 60.7914 12.9989C60.0571 12.9989 59.2929 13.088 58.4994 13.2662C57.7059 13.4325 57.0839 13.6344 56.6339 13.872L55.4969 11.4489C56.3022 10.9262 57.3504 10.4689 58.6416 10.077C59.9325 9.67311 61.2474 9.47119 62.5859 9.47119C63.7704 9.47119 64.7475 9.58996 65.5175 9.82752C66.2873 10.0532 66.9092 10.4452 67.3829 11.0034C67.8686 11.5498 68.2122 12.2506 68.4135 13.1058C68.6147 13.9492 68.7155 15.0241 68.7155 16.3307V23.5822L69.2129 24.9719H64.3447L63.7763 23.3863ZM62.3726 22.2103C62.5267 22.2103 62.6688 22.1806 62.799 22.1212C62.9412 22.05 63.0478 21.9846 63.1188 21.9252C63.19 21.854 63.2255 21.8184 63.2255 21.8184V17.5423C62.5029 17.5423 61.9284 17.7442 61.502 18.148C61.0757 18.54 60.8624 19.1517 60.8624 19.9833C60.8624 21.468 61.3659 22.2103 62.3726 22.2103Z" fill="#02090E"></path><path d="M75.6604 25.3461C74.5471 25.3461 73.4218 25.1621 72.2847 24.7938C71.1477 24.4137 70.4192 24.0454 70.0994 23.6891L70.5614 20.8205C70.9641 21.2126 71.6333 21.551 72.569 21.8361C73.5165 22.1212 74.482 22.2638 75.4651 22.2638C76.1757 22.2638 76.6614 22.1747 76.922 21.9966C77.1943 21.8184 77.3306 21.5689 77.3306 21.2482C77.3306 20.9393 77.0937 20.6662 76.6198 20.4286C76.1461 20.1791 75.3763 19.8942 74.3102 19.5734C71.5504 18.7419 70.1704 17.0196 70.1704 14.4065C70.1704 13.3375 70.4784 12.4229 71.0943 11.6627C71.7102 10.8906 72.4978 10.3323 73.4573 9.98787C74.4167 9.64342 75.4886 9.47119 76.6731 9.47119C78.6986 9.47119 80.191 9.84534 81.1504 10.5936C81.3637 10.7956 81.4702 10.8965 81.4702 10.8965L80.6886 13.4444C79.9069 12.6723 78.8288 12.2863 77.4549 12.2863C76.3296 12.2863 75.7671 12.6189 75.7671 13.284C75.7671 13.4741 75.8084 13.6344 75.8914 13.7651C75.9743 13.8838 76.1106 13.9908 76.3 14.0858C76.5014 14.1689 76.6969 14.2402 76.8865 14.2996C77.0759 14.3471 77.3424 14.4184 77.6859 14.5134C78.0294 14.5965 78.3255 14.6737 78.5743 14.745C79.96 15.2082 80.9669 15.8615 81.5947 16.7049C82.2224 17.5482 82.5363 18.5994 82.5363 19.8584C82.5363 23.5169 80.2443 25.3461 75.6604 25.3461Z" fill="#02090E"></path><path d="M91.3373 31.1012C90.1173 31.1012 88.9682 30.9228 87.8904 30.5666C86.8125 30.2103 86.0249 29.7291 85.5274 29.1235L86.4514 27.1991C87.1382 27.5912 88.228 27.7872 89.7204 27.7872C90.1943 27.7872 90.6029 27.7337 90.9463 27.6268C91.2898 27.52 91.5978 27.3298 91.8702 27.0567C92.1427 26.7954 92.35 26.4212 92.4922 25.9342C92.6343 25.4471 92.7112 24.8474 92.7231 24.1346V22.6025L92.5455 22.8874C92.4269 23.0775 92.2433 23.3092 91.9947 23.5823C91.7576 23.8436 91.4853 24.1108 91.1773 24.3841C90.8694 24.6455 90.4904 24.8712 90.0402 25.0611C89.602 25.2513 89.152 25.3462 88.69 25.3462C86.9251 25.3462 85.6814 24.8533 84.9588 23.8674C84.2363 22.8697 83.8751 21.1948 83.8751 18.843V12.518L83.2355 11.8766V9.82764H89.7027V19.9655C89.7027 20.5119 89.7855 20.9158 89.9514 21.1771C90.129 21.4264 90.4784 21.5511 90.9996 21.5511C91.1537 21.5511 91.3076 21.5275 91.4616 21.4799C91.6157 21.4205 91.7637 21.3433 91.9059 21.2483C92.0598 21.1533 92.2196 21.0346 92.3855 20.892V12.518L91.4082 11.8766V9.82764H98.1776V22.8874C98.1776 25.5126 97.6208 27.5377 96.5074 28.963C95.3941 30.3884 93.6706 31.1012 91.3373 31.1012Z" fill="#02090E"></path><path d="M102.365 25.3106L99.4516 22.3708V21.7471L102.365 18.8252H103.041L106.079 21.7471V22.3708L103.041 25.3106H102.365Z" fill="#CCFE02"></path><path d="M116.937 24.9721C115.611 24.9721 114.426 24.6928 113.384 24.1346V24.9721H107.592V4.82107L106.526 4.17966V2.52269L112.229 1.63184H113.384V11.2174C113.573 11.0036 113.781 10.8016 114.006 10.6116C114.231 10.4215 114.503 10.2374 114.823 10.0593C115.143 9.88109 115.504 9.73855 115.907 9.63166C116.321 9.52475 116.76 9.47131 117.222 9.47131C119.176 9.47131 120.609 10.1424 121.521 11.4846C122.445 12.8268 122.907 14.6857 122.907 17.0613C122.907 18.1779 122.783 19.2112 122.534 20.1615C122.285 21.0998 121.918 21.9314 121.432 22.6558C120.947 23.3804 120.319 23.9506 119.549 24.3662C118.791 24.7701 117.92 24.9721 116.937 24.9721ZM114.325 22.4955C115.913 22.4955 116.706 21.278 116.706 18.843V15.8141C116.706 14.7926 116.517 14.0087 116.138 13.4623C115.771 12.904 115.297 12.6249 114.716 12.6249C114.278 12.6249 113.834 12.7853 113.384 13.106V22.3709C113.562 22.4182 113.727 22.4538 113.881 22.4776C114.035 22.4896 114.183 22.4955 114.325 22.4955Z" fill="#CCFE02"></path><path d="M133.445 22.6025C133.374 22.7686 133.226 22.9885 133.001 23.2616C132.788 23.5349 132.504 23.8377 132.148 24.1702C131.793 24.4909 131.355 24.7642 130.834 24.99C130.313 25.2275 129.785 25.3462 129.252 25.3462C127.582 25.3462 126.386 24.8474 125.664 23.8495C124.953 22.8518 124.597 21.1889 124.597 18.8608V12.518L123.976 11.8766V9.82764H130.425V19.9834C130.413 20.5178 130.502 20.9158 130.692 21.1771C130.881 21.4264 131.225 21.5511 131.722 21.5511C131.793 21.5511 131.858 21.5511 131.917 21.5511C131.977 21.5393 132.036 21.5275 132.095 21.5155C132.154 21.4917 132.202 21.474 132.237 21.462C132.285 21.4502 132.338 21.4323 132.397 21.4087C132.456 21.373 132.504 21.3433 132.539 21.3197C132.575 21.2959 132.622 21.2662 132.681 21.2304C132.741 21.183 132.782 21.1474 132.806 21.1236C132.841 21.0998 132.889 21.0642 132.948 21.0167C133.019 20.9573 133.072 20.9158 133.108 20.892V12.518L132.148 11.8766V9.82764H138.918V24.9721H133.996L133.445 22.6025Z" fill="#CCFE02"></path><path d="M141.362 24.9721V13.4445L140.296 12.7853V10.8789L144.116 9.82766H147.083V24.9721H141.362ZM143.938 8.1885L141.024 5.2487V4.62511L143.938 1.70312H144.613L147.651 4.62511V5.2487L144.613 8.1885H143.938Z" fill="#CCFE02"></path><path d="M149.339 24.9721V4.82107L148.273 4.17966V2.52269L153.976 1.63184H155.131V24.9721H149.339Z" fill="#CCFE02"></path><path d="M167.43 24.9721L166.737 22.6737C166.642 22.84 166.53 23.0062 166.399 23.1725C166.281 23.3389 166.085 23.5526 165.813 23.8139C165.541 24.0634 165.25 24.2831 164.942 24.4732C164.635 24.6632 164.25 24.8295 163.788 24.9721C163.326 25.1146 162.84 25.1858 162.331 25.1858C160.376 25.1858 158.943 24.5147 158.031 23.1725C157.119 21.8303 156.663 19.9655 156.663 17.578C156.663 16.0814 156.876 14.7511 157.303 13.587C157.729 12.4111 158.398 11.4668 159.31 10.7541C160.222 10.0414 161.324 9.68511 162.615 9.68511C163.385 9.68511 164.072 9.76826 164.676 9.93455C165.28 10.1008 165.801 10.3028 166.239 10.5403V5.14177L164.285 4.48255V2.52269L170.575 1.63184H171.96V24.9721H167.43ZM164.925 21.6937C165.138 21.6937 165.357 21.6581 165.582 21.5869C165.807 21.5037 166.026 21.3909 166.239 21.2483V12.2864C165.872 12.2032 165.535 12.1617 165.227 12.1617C163.651 12.1735 162.858 13.391 162.846 15.8141V18.3085C162.846 19.4251 163.041 20.2683 163.432 20.8385C163.823 21.4087 164.321 21.6937 164.925 21.6937Z" fill="#CCFE02"></path><path d="M182.34 15.7606C182.34 14.2521 182.263 13.1831 182.109 12.5535C181.955 11.924 181.671 11.6092 181.256 11.6092C180.901 11.6092 180.611 11.6745 180.386 11.8052C180.161 11.924 179.995 12.12 179.888 12.3932C179.782 12.6545 179.711 12.9277 179.675 13.2128C179.652 13.4859 179.64 13.8363 179.64 14.2639V15.7606H182.34ZM180.919 25.3461C179.592 25.3461 178.437 25.1442 177.454 24.7403C176.483 24.3364 175.713 23.7723 175.145 23.0477C174.588 22.3232 174.179 21.5095 173.919 20.6068C173.658 19.6923 173.528 18.6766 173.528 17.5601C173.528 14.8994 174.203 12.8861 175.553 11.5201C176.904 10.1542 178.793 9.47119 181.221 9.47119C183.554 9.47119 185.225 10.0235 186.231 11.1282C187.238 12.2209 187.741 13.9848 187.741 16.4198V18.3975H179.622V18.736C179.622 19.4368 179.693 20.013 179.835 20.4642C179.989 20.9157 180.208 21.2482 180.493 21.4619C180.777 21.6758 181.067 21.8184 181.363 21.8896C181.659 21.961 182.02 21.9966 182.447 21.9966C182.861 21.9966 183.306 21.9431 183.779 21.8361C184.265 21.7293 184.751 21.563 185.236 21.3373C185.734 21.1115 186.148 20.8443 186.48 20.5356L187.528 22.335C187.09 23.0477 186.445 23.6474 185.592 24.1345C184.751 24.6098 183.939 24.9305 183.157 25.0966C182.376 25.263 181.63 25.3461 180.919 25.3461Z" fill="#CCFE02"></path><path d="M195.405 24.9718H189.666V13.4442L188.6 12.785V10.7717L192.42 9.82736H193.859L194.374 14.0678C194.86 11.1577 196.418 9.70264 199.047 9.70264C199.343 9.70264 199.651 9.75608 199.971 9.86299L199.367 16.2058C199.118 15.9801 198.573 15.8673 197.731 15.8673C196.524 15.8673 195.748 16.188 195.405 16.8294V24.9718Z" fill="#CCFE02"></path><path d="M6.03992 5.53027H24.1596V22.6476H6.03992V5.53027Z" fill="#0C1115"></path><path d="M3.09875 0.105337C1.93015 0.329179 0.827206 1.25088 0.275735 2.4491C0 3.05477 0 3.13378 0 15.1027V27.1506L0.367647 27.9011C0.787816 28.757 1.53624 29.4944 2.41596 29.9026C3.01996 30.179 3.08561 30.179 14.4302 30.2186C23.6608 30.2449 25.8141 30.2186 25.7747 30.0868C25.0394 28.0987 24.5929 26.4659 24.6586 25.992C24.7506 25.3072 25.21 24.8465 25.8929 24.7542C26.3655 24.6884 27.9937 25.1361 29.9765 25.8735C30.1076 25.913 30.1339 23.7536 30.1076 14.497C30.0682 3.1206 30.0682 3.05477 29.7925 2.4491C29.3855 1.56689 28.6502 0.816363 27.7967 0.395014L27.0484 0.0263344L15.3624 0C8.92857 0 3.41386 0.0395014 3.09875 0.105337ZM16.3209 9.07216C16.4128 9.16434 16.4785 9.37501 16.4785 9.55935C16.4785 10.323 14.7847 20.9225 14.6402 21.0938C14.4433 21.3307 13.9706 21.3571 13.7474 21.1333C13.6555 21.0411 13.5898 20.8305 13.5898 20.6329C13.5898 19.8824 15.2836 9.28283 15.4281 9.11166C15.625 8.87466 16.0977 8.84831 16.3209 9.07216ZM11.8829 10.8892C12.0273 11.0341 12.1455 11.2052 12.1455 11.2711C12.1455 11.4554 11.594 12.1138 10.1497 13.628C9.44065 14.3654 8.86292 15.0237 8.86292 15.0895C8.86292 15.1685 9.50631 15.9059 10.3073 16.7354C11.0951 17.5781 11.8435 18.4077 11.9617 18.592C12.1586 18.8948 12.1586 18.9475 11.9617 19.2504C11.594 19.8165 11.292 19.6718 9.86082 18.1575C7.56302 15.7347 7.28729 15.4187 7.28729 15.1027C7.28729 14.9315 7.5499 14.5233 7.90441 14.1283C9.79518 12.0611 11.2395 10.6259 11.4233 10.6259C11.5284 10.6259 11.7385 10.7444 11.8829 10.8892ZM20.2075 12.0348C22.5447 14.497 22.781 14.7867 22.781 15.1159C22.781 15.3397 22.2427 16.0112 20.9296 17.407C19.9055 18.4867 18.9864 19.4347 18.8945 19.4874C18.6318 19.6322 18.2117 19.4742 18.041 19.1713C17.8572 18.8158 18.0147 18.592 19.761 16.7354C20.562 15.9059 21.2053 15.1685 21.2053 15.1027C21.2053 15.0369 20.562 14.2995 19.761 13.47C18.9732 12.6273 18.2248 11.7978 18.1066 11.6134C17.9097 11.3106 17.9097 11.2579 18.1066 10.9551C18.4743 10.3889 18.7763 10.5337 20.2075 12.0348Z" fill="#CCFE02"></path><path d="M25.6959 25.7946C25.6039 25.8868 25.5384 26.0711 25.5384 26.2292C25.5384 26.3741 26.1555 28.3358 26.8908 30.5743C28.1382 34.3006 28.2825 34.6693 28.5976 34.7747C29.1098 34.9589 29.2935 34.7088 29.74 33.2209C30.3573 31.1931 30.5278 30.7851 30.8298 30.6138C30.9874 30.5348 31.8408 30.2451 32.7337 29.9687C34.5851 29.4155 34.8476 29.2445 34.6508 28.7045C34.5457 28.3885 34.2306 28.2568 30.4622 26.9929C28.23 26.2555 26.2737 25.6367 26.1292 25.6367C25.9716 25.6367 25.7878 25.7024 25.6959 25.7946Z" fill="#02090E"></path></g><defs><clipPath id="clip0_1211_86"><rect width="200" height="35" fill="white"></rect></clipPath></defs></svg>